<?xml version="1.0" standalone="no"?>
<!DOCTYPE svg PUBLIC "-//W3C//DTD SVG 20010904//EN"
 "http://www.w3.org/TR/2001/REC-SVG-20010904/DTD/svg10.dtd">
<svg version="1.0" xmlns="http://www.w3.org/2000/svg"
 width="1074.000000pt" height="774.000000pt" viewBox="0 0 1074.000000 774.000000"
 preserveAspectRatio="xMidYMid meet">

<g transform="translate(0.000000,774.000000) scale(0.100000,-0.100000)"
fill="#000000" stroke="none">
<path d="M5280 7524 c-144 -14 -291 -59 -394 -121 -232 -141 -333 -372 -310
-711 l9 -130 -27 14 c-43 22 -85 18 -104 -11 -36 -55 1 -306 63 -434 23 -46
36 -60 75 -79 l46 -23 6 -87 c4 -48 10 -120 14 -161 l7 -74 52 41 c60 48 123
133 187 253 50 92 57 83 25 -31 -75 -274 -243 -423 -589 -525 -302 -89 -404
-128 -502 -195 l-58 -40 -77 24 c-256 80 -534 77 -803 -10 -197 -63 -359 -162
-485 -295 -171 -182 -261 -367 -310 -637 -23 -123 -19 -117 -98 -179 -235
-185 -374 -365 -461 -597 -14 -35 -50 -147 -81 -248 -69 -222 -106 -308 -185
-434 -75 -119 -119 -206 -154 -302 -32 -91 -32 -101 0 -204 96 -303 316 -561
613 -716 96 -51 244 -112 269 -112 17 0 65 107 97 216 19 64 28 129 35 243 16
255 22 267 192 350 272 133 443 286 627 560 96 143 94 134 65 232 -14 46 -27
91 -30 99 -3 8 -19 -11 -40 -50 -122 -218 -341 -419 -585 -535 -87 -41 -293
-114 -364 -129 -16 -4 33 28 110 71 450 251 660 465 791 803 20 52 56 182 80
289 24 107 46 196 49 199 3 3 5 -42 5 -99 0 -259 65 -545 180 -786 59 -125
158 -271 287 -424 54 -64 146 -174 206 -244 138 -165 251 -333 331 -493 62
-125 141 -320 133 -329 -3 -2 -19 22 -37 54 -40 72 -149 231 -204 298 -79 97
-209 246 -212 243 -1 -2 8 -47 21 -100 48 -197 53 -331 26 -608 -10 -101 3
-220 34 -319 14 -44 28 -81 31 -81 3 0 18 8 32 19 15 10 55 29 89 41 52 19 77
22 147 18 73 -4 95 -10 158 -41 40 -20 87 -49 103 -63 29 -25 29 -26 5 -20
-179 46 -266 45 -367 -4 -134 -66 -205 -177 -287 -445 -25 -82 -46 -153 -46
-157 0 -5 770 -8 1710 -8 941 0 1710 3 1710 6 0 10 -38 139 -72 244 -63 196
-143 305 -266 363 -87 41 -169 46 -286 18 -49 -12 -91 -20 -93 -17 -9 9 127
88 186 107 51 17 80 21 147 17 72 -4 94 -9 154 -41 l69 -36 19 52 c46 122 56
239 37 417 -8 80 -15 174 -15 210 0 85 25 256 50 348 11 40 20 75 20 79 0 9
-93 -95 -179 -200 -89 -108 -174 -229 -231 -324 -23 -40 -44 -73 -46 -73 -11
0 76 220 126 320 100 199 230 380 516 716 196 231 284 366 358 552 87 218 125
397 133 637 4 97 9 151 14 138 4 -12 24 -93 43 -180 69 -312 137 -463 295
-657 113 -140 326 -301 596 -450 130 -72 122 -74 -58 -15 -356 117 -619 317
-787 600 l-48 81 -30 -99 -31 -98 47 -75 c123 -199 304 -402 442 -499 41 -29
136 -83 210 -121 74 -37 145 -79 156 -91 35 -39 45 -86 54 -249 6 -91 18 -189
30 -238 23 -97 87 -242 106 -242 23 0 164 59 265 111 297 153 508 397 613 711
15 42 26 91 26 108 0 31 -56 193 -93 265 -11 22 -47 81 -80 130 -78 116 -122
221 -203 480 -78 251 -104 313 -177 431 -77 124 -176 234 -298 333 -57 46
-110 89 -116 95 -7 6 -25 70 -39 141 -57 280 -144 455 -313 628 -315 324 -846
445 -1298 296 l-62 -20 -33 24 c-95 71 -200 115 -450 188 -196 57 -268 85
-363 141 -146 87 -232 197 -290 372 -49 145 -45 171 9 70 66 -123 119 -197
181 -249 30 -26 57 -46 60 -44 2 3 6 52 10 109 12 212 11 207 60 229 35 15 49
30 69 70 68 133 109 389 72 446 -19 29 -70 34 -102 10 -10 -8 -21 -15 -24 -15
-3 0 -1 57 3 128 16 227 -18 392 -109 524 -103 151 -260 250 -465 292 -79 16
-254 27 -329 20z m120 -1591 c18 -117 64 -288 99 -377 63 -158 147 -254 279
-320 28 -15 52 -28 52 -30 0 -1 -25 -20 -55 -41 -120 -82 -229 -234 -269 -375
-50 -177 -76 -573 -77 -1161 0 -435 11 -683 43 -979 19 -176 20 -230 14 -555
-3 -198 -11 -443 -16 -545 -19 -337 -75 -880 -90 -863 -10 12 -37 217 -60 458
-26 274 -38 531 -46 955 -6 307 -4 367 14 545 28 264 32 329 41 660 14 460
-11 1138 -49 1362 -40 231 -137 394 -297 501 -29 19 -53 36 -53 38 0 2 32 20
72 40 177 89 276 268 345 622 16 78 31 142 34 142 3 0 12 -35 19 -77z m-1802
-802 c113 -28 122 -34 122 -79 0 -50 47 -130 107 -181 26 -22 131 -82 232
-133 204 -102 273 -155 319 -242 l27 -51 0 -275 c1 -253 2 -281 23 -355 46
-164 130 -302 296 -485 233 -257 354 -487 391 -740 5 -38 -1 -28 -42 65 -92
208 -188 352 -398 595 -135 156 -228 291 -284 411 -67 142 -85 230 -111 528
-8 93 -15 127 -40 178 -41 88 -121 169 -264 265 -67 45 -155 114 -196 153 -91
87 -113 101 -187 120 -109 28 -245 14 -408 -42 -143 -50 -243 -108 -386 -223
l-44 -35 24 40 c78 130 178 223 343 318 73 42 79 47 51 47 -90 0 -277 -60
-378 -122 -230 -140 -392 -345 -511 -648 -30 -75 -33 -81 -34 -49 0 20 7 74
15 120 56 321 249 580 543 728 88 45 228 89 330 106 122 20 350 13 460 -14z
m4019 14 c235 -38 433 -134 586 -283 165 -161 261 -346 297 -572 18 -115 10
-140 -19 -60 -32 89 -114 249 -169 334 -60 91 -197 228 -289 290 -127 83 -327
156 -427 156 l-41 0 78 -43 c114 -61 227 -154 290 -239 87 -117 88 -127 2 -59
-187 149 -389 233 -599 247 -155 11 -241 -22 -351 -136 -27 -29 -102 -87 -166
-130 -189 -127 -264 -206 -304 -320 -9 -25 -22 -123 -30 -219 -19 -229 -41
-315 -120 -476 -72 -145 -105 -191 -295 -415 -192 -226 -291 -377 -376 -575
-24 -55 -44 -96 -44 -92 0 34 46 222 70 283 72 181 150 298 345 514 107 120
163 198 214 305 81 165 86 198 86 510 l0 270 28 57 c43 88 103 134 315 242
119 61 207 113 241 143 55 48 101 126 101 173 0 38 11 49 66 65 150 44 350 56
511 30z m-3966 -654 c-41 -57 -158 -167 -229 -214 -168 -113 -327 -162 -562
-177 -238 -15 -289 -20 -376 -40 -318 -74 -603 -289 -760 -574 -20 -37 -38
-65 -41 -63 -7 8 28 100 72 187 118 234 340 442 561 526 110 41 196 53 444 63
259 11 328 23 491 86 121 47 228 103 330 174 46 33 85 59 87 60 2 1 -6 -12
-17 -28z m3552 -48 c107 -73 213 -125 353 -173 153 -53 246 -67 481 -75 106
-3 227 -12 268 -20 183 -35 350 -131 500 -287 107 -110 175 -208 226 -329 58
-133 58 -154 0 -60 -70 115 -115 172 -213 267 -97 95 -206 168 -336 225 -152
66 -256 88 -507 104 -314 20 -466 63 -633 182 -73 51 -192 161 -225 207 -24
33 -23 33 86 -41z m-3566 -639 c109 -97 213 -195 232 -217 33 -37 33 -39 10
-32 -56 16 -189 88 -252 136 -98 74 -176 176 -217 285 -9 22 -8 24 9 14 11 -5
109 -89 218 -186z m3694 124 c-63 -130 -207 -265 -356 -333 -152 -70 -148 -57
23 97 69 62 155 140 191 172 88 79 163 138 168 132 3 -2 -9 -33 -26 -68z
m-5257 -554 c-8 -19 -19 -94 -24 -165 -11 -151 -28 -221 -81 -337 -51 -111
-111 -194 -234 -321 -56 -58 -110 -120 -119 -138 -8 -17 -22 -70 -29 -117 -13
-79 -28 -116 -47 -116 -4 0 -26 30 -50 66 -80 124 -151 137 -222 41 l-31 -42
7 48 c3 26 12 61 21 77 17 34 67 73 109 87 27 8 31 17 56 109 33 124 58 191
111 296 83 167 204 325 302 396 54 40 228 149 239 151 4 1 0 -15 -8 -35z
m6743 -48 c113 -70 185 -134 259 -233 116 -154 193 -309 249 -503 l33 -115 48
-26 c62 -33 102 -89 110 -154 l7 -50 -31 42 c-71 96 -139 84 -218 -38 -25 -38
-49 -69 -53 -69 -19 0 -32 32 -45 111 -8 46 -19 97 -25 113 -7 16 -56 76 -110
132 -235 243 -310 399 -331 685 -5 69 -14 138 -20 153 -14 38 -13 40 13 24 12
-8 63 -41 114 -72z m-5347 -23 c201 -37 500 -17 760 51 52 14 96 24 98 22 10
-11 -175 -103 -276 -137 -298 -101 -634 -67 -815 82 -74 61 -65 68 41 32 54
-18 140 -40 192 -50z m4100 68 c-28 -54 -154 -128 -275 -163 -68 -19 -103 -22
-235 -22 -171 0 -258 16 -407 74 -84 32 -228 109 -220 116 3 3 47 -6 98 -20
222 -60 476 -86 653 -67 114 13 318 60 364 86 35 18 35 18 22 -4z m-2491
-1216 c-29 -95 -99 -229 -154 -292 -62 -71 -129 -119 -259 -183 -66 -33 -118
-66 -130 -82 -20 -28 -20 -29 -2 -120 24 -129 101 -356 179 -528 73 -164 159
-388 154 -403 -2 -6 -23 23 -47 64 -24 41 -74 122 -111 180 -96 150 -183 310
-224 413 -46 114 -93 306 -101 417 -6 79 -5 89 10 89 36 0 246 75 331 118 117
60 225 166 309 305 33 53 61 96 62 94 2 -2 -6 -34 -17 -72z m627 13 c59 -99
141 -204 197 -253 29 -25 90 -65 137 -89 80 -42 290 -116 326 -116 41 0 -12
-309 -86 -496 -40 -100 -123 -258 -201 -382 -34 -53 -89 -141 -121 -195 -33
-54 -62 -96 -64 -94 -8 8 67 211 141 377 118 267 181 457 200 605 10 71 -12
94 -149 160 -61 30 -137 75 -169 100 -99 79 -182 208 -232 361 -36 109 -33
112 21 22z"/>
</g>
</svg>
