<?xml version="1.0" standalone="no"?>
<!DOCTYPE svg PUBLIC "-//W3C//DTD SVG 20010904//EN"
 "http://www.w3.org/TR/2001/REC-SVG-20010904/DTD/svg10.dtd">
<svg version="1.0" xmlns="http://www.w3.org/2000/svg"
 width="512.000000pt" height="512.000000pt" viewBox="0 0 512.000000 512.000000"
 preserveAspectRatio="xMidYMid meet">

<g transform="translate(0.000000,512.000000) scale(0.100000,-0.100000)"
fill="#000000" stroke="none">
<path d="M1992 4628 c-20 -20 -14 -58 15 -92 67 -80 83 -197 39 -291 -23 -51
-49 -80 -63 -72 -19 11 -185 -13 -263 -39 -146 -49 -283 -158 -361 -288 l-32
-53 -90 -7 c-419 -32 -764 -229 -948 -542 -26 -44 -59 -110 -75 -149 l-29 -70
-3 -508 c-2 -342 1 -514 8 -527 6 -11 25 -28 43 -37 71 -40 411 -9 612 54 149
47 308 142 384 229 36 40 32 45 69 -81 86 -292 124 -519 125 -745 1 -168 -1
-182 -36 -336 -42 -181 -91 -354 -132 -459 -37 -96 -40 -118 -20 -138 15 -16
119 -17 1325 -17 l1309 0 12 21 c13 26 11 37 -36 164 -36 99 -107 361 -142
525 -35 168 -20 431 42 716 25 114 91 359 102 377 3 5 18 -7 34 -26 70 -84
222 -176 378 -227 202 -66 545 -98 618 -57 18 9 37 26 43 36 6 13 10 196 10
520 l0 500 -31 78 c-61 154 -158 296 -270 397 -190 171 -464 280 -754 302
l-90 7 -33 53 c-121 196 -327 316 -562 326 -41 2 -81 7 -89 12 -7 5 -24 32
-37 60 -42 91 -28 208 36 288 47 58 37 108 -23 108 -35 0 -78 -44 -114 -120
-21 -43 -28 -74 -31 -145 -5 -105 14 -167 76 -256 l38 -54 119 -5 c139 -7 221
-30 312 -89 99 -64 163 -144 243 -303 40 -79 79 -151 88 -160 20 -23 55 -23
75 0 23 25 21 44 -8 102 -14 27 -25 53 -25 58 0 18 194 -13 310 -50 299 -95
520 -290 627 -553 l33 -80 0 -467 0 -466 -31 -7 c-58 -13 -280 15 -444 56 -44
11 -126 42 -183 70 -81 39 -118 64 -172 118 -39 38 -70 73 -70 78 0 6 17 17
38 25 65 26 158 104 208 173 58 83 94 178 101 271 6 70 5 72 -22 90 -25 16
-30 16 -54 3 -22 -13 -27 -24 -33 -78 -13 -121 -62 -217 -145 -291 -48 -42
-126 -83 -181 -95 -40 -8 -54 -35 -112 -229 -107 -354 -160 -687 -146 -913 9
-152 105 -571 161 -707 8 -19 15 -38 15 -41 0 -3 -537 -5 -1194 -5 l-1193 0
42 138 c49 157 109 410 126 527 14 96 6 327 -16 470 -29 186 -79 393 -152 620
-35 111 -57 145 -94 145 -36 0 -141 61 -189 110 -75 74 -130 202 -130 300 0
66 -90 77 -106 13 -13 -48 14 -163 57 -252 50 -101 129 -183 223 -232 36 -19
66 -38 66 -43 0 -5 -31 -39 -70 -77 -136 -134 -370 -216 -691 -244 -42 -4 -91
-4 -108 0 l-31 7 0 465 0 465 29 71 c91 228 253 398 483 507 125 59 236 89
435 114 l32 5 -32 -65 c-30 -61 -31 -66 -17 -92 19 -33 60 -40 82 -15 8 10 48
83 89 163 64 125 84 155 149 221 117 119 242 169 422 169 l98 0 31 43 c120
164 124 341 10 495 -26 35 -37 42 -64 42 -18 0 -38 -5 -45 -12z"/>
<path d="M2276 3578 c-9 -15 -23 -126 -41 -326 -14 -167 -33 -329 -41 -360
-51 -197 -230 -374 -427 -423 -59 -14 -82 -43 -68 -82 15 -39 47 -42 140 -11
189 62 332 189 416 366 51 108 62 165 90 471 28 314 30 358 13 375 -20 20 -66
14 -82 -10z"/>
<path d="M2756 3584 c-21 -20 -20 -36 9 -357 28 -310 42 -386 89 -483 87 -181
228 -305 420 -369 88 -29 121 -27 138 10 18 41 -8 67 -95 93 -150 46 -294 170
-358 307 -45 95 -56 160 -84 475 -18 201 -31 302 -41 318 -17 26 -55 29 -78 6z"/>
<path d="M2522 2544 l-22 -15 0 -825 c0 -550 3 -832 10 -845 15 -26 75 -26 90
0 7 13 10 295 10 844 0 785 -1 825 -18 840 -23 21 -41 21 -70 1z"/>
<path d="M2102 1603 c-7 -3 -19 -18 -27 -34 -42 -80 -117 -134 -202 -146 -27
-3 -56 -13 -65 -21 -24 -20 -23 -55 2 -77 41 -37 192 3 272 74 84 74 124 176
79 201 -21 11 -38 12 -59 3z"/>
<path d="M2946 1594 c-24 -24 -19 -62 15 -115 60 -95 160 -156 268 -166 45 -4
61 -2 74 12 37 36 11 95 -42 95 -40 0 -109 26 -148 56 -18 14 -49 50 -68 80
-37 58 -68 70 -99 38z"/>
<path d="M2092 1112 c-15 -16 -39 -47 -55 -70 -32 -47 -113 -92 -167 -92 -65
0 -96 -41 -70 -91 9 -15 22 -19 65 -19 78 0 155 32 221 92 88 81 118 160 72
192 -30 21 -35 20 -66 -12z"/>
<path d="M2952 1125 c-30 -22 -28 -61 6 -116 64 -101 179 -169 285 -169 60 0
77 12 77 51 0 35 -32 59 -80 59 -72 1 -161 63 -201 142 -11 21 -23 38 -28 38
-5 0 -15 2 -23 5 -7 3 -23 -2 -36 -10z"/>
</g>
</svg>
