<?xml version="1.0" standalone="no"?>
<!DOCTYPE svg PUBLIC "-//W3C//DTD SVG 20010904//EN"
 "http://www.w3.org/TR/2001/REC-SVG-20010904/DTD/svg10.dtd">
<svg version="1.0" xmlns="http://www.w3.org/2000/svg"
 width="512.000000pt" height="512.000000pt" viewBox="0 0 512.000000 512.000000"
 preserveAspectRatio="xMidYMid meet">

<g transform="translate(0.000000,512.000000) scale(0.100000,-0.100000)"
fill="#000000" stroke="none">
<path d="M2517 4962 c-14 -16 -17 -43 -17 -173 l0 -155 -42 -35 c-68 -56 -148
-106 -218 -136 -58 -25 -77 -27 -185 -28 -115 0 -123 1 -189 33 -37 17 -79 32
-91 32 -43 0 -66 -40 -49 -85 8 -21 109 -71 181 -90 74 -19 213 -19 288 0 123
32 267 115 378 218 l47 44 0 180 c0 162 -2 182 -18 196 -24 22 -65 21 -85 -1z"/>
<path d="M808 4698 c-20 -20 -21 -26 -15 -190 7 -168 34 -389 64 -522 13 -61
14 -105 4 -365 -23 -568 -100 -972 -277 -1449 -99 -266 -162 -503 -198 -752
-16 -105 -10 -136 28 -146 61 -15 75 8 96 161 18 127 81 378 141 560 l51 154
32 -6 c441 -77 887 -251 1165 -452 51 -37 69 -59 96 -111 58 -116 151 -217
273 -301 l67 -45 12 -90 c23 -177 35 -424 31 -695 -3 -301 -2 -309 52 -309 15
0 35 9 46 21 18 20 19 41 19 388 0 323 -11 555 -30 621 -4 13 11 15 95 15 84
0 99 -2 95 -15 -19 -66 -30 -298 -30 -621 0 -347 1 -368 19 -388 11 -12 31
-21 46 -21 54 0 55 8 52 309 -4 271 8 518 31 695 l12 90 67 45 c123 84 215
185 273 302 32 62 41 71 137 136 275 187 625 324 1038 408 63 13 116 23 117
22 1 -1 24 -70 52 -154 60 -178 124 -431 141 -558 17 -125 27 -154 55 -161 34
-8 65 4 75 31 10 27 -9 185 -39 325 -30 134 -82 312 -142 475 -92 253 -109
308 -154 480 -94 362 -131 620 -146 1031 -11 280 -11 296 9 395 33 161 52 329
59 505 6 156 5 162 -15 182 -12 12 -33 22 -45 22 -45 0 -54 -25 -61 -170 -21
-407 -118 -760 -251 -910 -49 -55 -54 -73 -29 -108 33 -47 104 -11 182 92 12
16 24 27 26 25 2 -2 6 -69 9 -149 l5 -146 -82 -61 c-142 -107 -291 -189 -474
-262 -112 -45 -241 -86 -248 -78 -6 5 59 89 143 183 35 40 63 81 63 93 0 27
-34 61 -62 61 -33 0 -178 -161 -283 -315 -26 -38 -48 -71 -49 -72 -2 -2 -63
-13 -137 -25 -118 -20 -172 -22 -454 -23 -320 0 -331 1 -567 41 -32 6 -43 15
-77 69 -47 73 -146 197 -218 273 -54 57 -81 64 -113 32 -32 -32 -24 -58 43
-134 84 -94 149 -178 143 -183 -7 -8 -136 33 -248 78 -183 73 -332 155 -474
262 l-82 61 5 146 c3 80 7 147 9 149 2 2 14 -9 26 -25 42 -56 111 -114 134
-114 29 0 64 33 64 60 0 10 -20 42 -45 70 -133 150 -230 503 -251 910 -7 145
-16 170 -61 170 -12 0 -33 -10 -45 -22z m420 -1646 c331 -169 685 -273 1061
-313 148 -15 541 -6 681 16 400 62 822 215 1108 401 53 35 84 50 86 41 3 -6
10 -55 16 -107 24 -196 87 -479 155 -705 19 -63 35 -117 35 -119 0 -2 -19 -7
-42 -11 -97 -15 -373 -88 -510 -134 -177 -61 -337 -131 -472 -209 -56 -31
-104 -59 -109 -60 -4 -2 5 21 19 52 24 47 26 59 16 80 -12 26 -51 43 -77 32
-23 -8 -49 -57 -94 -175 -66 -170 -98 -226 -178 -311 -139 -148 -281 -212
-420 -190 -101 17 -177 62 -283 169 -104 105 -128 145 -201 332 -63 164 -82
188 -134 175 -43 -11 -50 -49 -21 -112 14 -30 23 -54 21 -54 -2 0 -38 20 -79
45 -224 132 -484 234 -805 314 -86 22 -177 42 -203 46 -27 4 -48 9 -48 11 0 2
16 56 35 119 68 226 131 509 155 705 6 52 13 101 16 108 2 8 30 -5 79 -37 42
-28 128 -77 193 -109z"/>
<path d="M2727 4492 c-20 -22 -22 -65 -4 -80 28 -23 135 -71 194 -86 77 -20
221 -21 296 -1 72 19 173 69 181 90 17 45 -6 85 -49 85 -12 0 -54 -15 -91 -32
-66 -32 -74 -33 -189 -33 -117 0 -122 1 -205 38 -98 42 -111 44 -133 19z"/>
<path d="M2517 4142 c-12 -13 -17 -37 -17 -78 0 -72 18 -104 60 -104 42 0 60
32 60 106 0 46 -4 65 -18 77 -24 22 -65 21 -85 -1z"/>
</g>
</svg>
