<svg xmlns="http://www.w3.org/2000/svg" width="100" height="100" viewBox="0 0 100 100" id="chest-muscle">
  <path d="M51,54.988V39.977a1,1,0,0,0-2,0V54.988a1,1,0,0,0,2,0Z"></path>
  <path d="M92.822,55.366a1,1,0,0,0,.523-.879V25.778a1,1,0,0,0-.419-.814,16.483,16.483,0,0,0-5.29-2.517.935.935,0,0,0-.108-.211c-.322-.4-8-9.764-24.457-10.385l-.9-3.845a1,1,0,0,0-.974-.772H38.8a1,1,0,0,0-.974.772l-.9,3.845c-16.459.621-24.135,9.981-24.457,10.385a.957.957,0,0,0-.108.211,16.5,16.5,0,0,0-5.29,2.517,1,1,0,0,0-.419.814V54.487a1,1,0,0,0,.523.879,23.461,23.461,0,0,0,7.2,1.9,15.645,15.645,0,0,0,1.708,2.963,100.966,100.966,0,0,0,4.535,13.615c1.757,3.986,2.055,9.967.885,17.775,0,.021,0,.04,0,.061a.806.806,0,0,0-.018.088.924.924,0,0,0,.03.148,1.013,1.013,0,0,0,.031.155.973.973,0,0,0,.1.206,1.069,1.069,0,0,0,.085.126.95.95,0,0,0,.162.148.911.911,0,0,0,.137.092.963.963,0,0,0,.2.072.739.739,0,0,0,.114.042,1.141,1.141,0,0,0,.141.01H77.507a1.141,1.141,0,0,0,.141-.01.739.739,0,0,0,.114-.042.963.963,0,0,0,.2-.072.911.911,0,0,0,.137-.092.95.95,0,0,0,.162-.148,1.069,1.069,0,0,0,.085-.126.973.973,0,0,0,.1-.206,1.013,1.013,0,0,0,.031-.155.947.947,0,0,0,.03-.148.806.806,0,0,0-.018-.088c0-.021.006-.04,0-.061-1.17-7.808-.872-13.789.885-17.775a100.966,100.966,0,0,0,4.535-13.615,15.645,15.645,0,0,0,1.708-2.963A23.461,23.461,0,0,0,92.822,55.366ZM77.544,73.036c-1.82,4.129-2.2,10.1-1.182,17.731H23.638c1.023-7.627.638-13.6-1.182-17.731A86.979,86.979,0,0,1,18.935,63a11.619,11.619,0,0,0,1.819,1.028c4.948,2.241,9.961,4.04,14.68,4.04,5.082,0,9.823-2.088,13.77-7.959A1,1,0,0,0,47.544,59c-6.426,9.557-14.7,8.316-25.966,3.212-9.15-4.144-7.135-20.617-7.113-20.783a1,1,0,0,0-1.984-.258,36.574,36.574,0,0,0,1.085,13.944,24.847,24.847,0,0,1-4.911-1.273V26.3c8.463-5.615,18.654.274,18.757.335a1,1,0,0,0,1.019-1.721,24.15,24.15,0,0,0-12.824-3.024c2.855-2.582,9.687-7.438,20.846-8.014l-.874,3.727a1,1,0,1,0,1.947.456L39.6,9.234H60.4l2.071,8.829a1,1,0,1,0,1.947-.456l-.874-3.727c11.117.576,17.966,5.43,20.836,8.012a24.143,24.143,0,0,0-12.814,3.026,1,1,0,1,0,1.02,1.72c.1-.061,10.271-5.967,18.756-.334V53.838a24.835,24.835,0,0,1-4.911,1.274,36.579,36.579,0,0,0,1.085-13.945,1,1,0,0,0-1.984.258c.022.166,2.037,16.639-7.113,20.783-11.27,5.1-19.54,6.344-25.966-3.212a1,1,0,0,0-1.66,1.115c3.948,5.871,8.687,7.959,13.771,7.959,4.718,0,9.732-1.8,14.679-4.04A11.619,11.619,0,0,0,81.065,63,86.979,86.979,0,0,1,77.544,73.036Z"></path>
  <path d="M57.8 31.566l.228 0c4.518-.105 7.005-3.96 7.109-4.125a1 1 0 00-1.69-1.07c-.019.031-2.036 3.116-5.466 3.2l-.18 0a6.334 6.334 0 01-4.993-2.221 1 1 0 00-1.617 1.178A8.334 8.334 0 0057.8 31.566zM72.079 60.731h.845a1 1 0 000-2h-.845a1 1 0 000 2zM47.191 27.345a6.437 6.437 0 01-5.173 2.219c-3.43-.08-5.447-3.165-5.464-3.194a1 1 0 00-1.692 1.068c.1.165 2.591 4.02 7.109 4.125l.228 0a8.336 8.336 0 006.609-3.043 1 1 0 00-1.617-1.178zM27.921 58.731h-.845a1 1 0 000 2h.845a1 1 0 000-2zM83.7 82.948a1.015 1.015 0 00.181-.016 1 1 0 00.8-1.163l-.563-3.081a1 1 0 00-1.967.359l.563 3.081A1 1 0 0083.7 82.948zM88.638 79.9A1 1 0 1090.163 78.6l-2.027-2.388a1 1 0 00-1.526 1.3zM92.987 75.061a1 1 0 00.337-1.942l-2.949-1.055a1 1 0 00-.674 1.883L92.65 75A1 1 0 0092.987 75.061zM90.239 67.352a1 1 0 00.179 1.983.932.932 0 00.181-.017l3.081-.561a1 1 0 00-.36-1.967zM90.152 61.311l-2.386 2.027a1 1 0 101.3 1.523l2.386-2.027a1 1 0 10-1.3-1.523zM17.043 77.884a1 1 0 00-1.163.8l-.563 3.081a1 1 0 00.8 1.163 1.015 1.015 0 00.181.016 1 1 0 00.982-.82l.563-3.081A1 1 0 0017.043 77.884zM10.6 80.249a1 1 0 00.762-.353l2.028-2.387a1 1 0 00-1.526-1.3L9.837 78.6a1 1 0 00.763 1.647zM9.625 72.064L6.676 73.119A1 1 0 107.35 75L10.3 73.947a1 1 0 00-.674-1.883zM6.32 68.757l3.081.561a.932.932 0 00.181.017 1 1 0 00.179-1.983L6.68 66.79a1 1 0 00-.36 1.967zM11.586 65.1a1 1 0 00.648-1.762L9.848 61.311a1 1 0 10-1.295 1.523l2.386 2.027A1 1 0 0011.586 65.1z"></path>
</svg>
