<?xml version="1.0" standalone="no"?>
<!DOCTYPE svg PUBLIC "-//W3C//DTD SVG 20010904//EN"
 "http://www.w3.org/TR/2001/REC-SVG-20010904/DTD/svg10.dtd">
<svg version="1.0" xmlns="http://www.w3.org/2000/svg"
 width="512.000000pt" height="512.000000pt" viewBox="0 0 512.000000 512.000000"
 preserveAspectRatio="xMidYMid meet">

<g transform="translate(0.000000,512.000000) scale(0.100000,-0.100000)"
fill="#000000" stroke="none">
<path d="M1579 5104 c-76 -23 -142 -91 -194 -198 -93 -191 -134 -461 -136
-895 l-1 -196 -29 140 c-30 152 -82 498 -99 665 -6 58 -14 183 -17 278 l-6
172 -49 0 -48 0 0 -107 c0 -362 106 -1043 255 -1641 l55 -223 0 -227 0 -227
-30 -80 c-83 -220 -123 -424 -124 -620 0 -167 14 -253 113 -687 131 -574 131
-588 4 -710 -78 -74 -177 -137 -332 -211 -69 -33 -129 -65 -133 -71 -4 -6 -8
-61 -8 -123 0 -89 3 -115 16 -128 14 -14 68 -15 518 -13 l501 3 53 29 c93 52
138 137 130 246 -3 43 -20 90 -81 215 -42 88 -79 179 -83 202 -10 63 8 142
101 452 156 518 179 632 180 871 0 232 -32 407 -106 568 l-29 65 0 231 0 232
54 134 c271 677 455 1334 482 1720 l7 100 -50 0 -50 0 -7 -97 c-21 -275 -97
-595 -259 -1088 l-82 -250 -6 210 c-9 296 -32 445 -89 575 -24 54 -34 102 -50
231 -23 180 -40 259 -73 328 -56 120 -166 166 -298 125z m168 -115 c53 -50 80
-141 103 -344 16 -144 28 -199 61 -268 18 -38 37 -110 51 -187 20 -111 23
-157 23 -415 0 -313 -11 -407 -61 -562 -22 -68 -24 -89 -24 -290 l0 -216 -25
23 c-61 57 -151 297 -205 542 -32 148 -45 174 -84 162 -30 -9 -34 -20 -40 -94
-19 -221 -48 -349 -105 -472 l-29 -63 -1 153 c-1 83 -10 241 -21 350 -107
1070 5 1736 288 1708 27 -2 53 -12 69 -27z m-13 -2225 c46 -85 98 -140 153
-165 38 -18 43 -25 72 -104 45 -123 71 -262 78 -410 10 -220 -22 -384 -168
-872 -97 -325 -119 -413 -119 -481 0 -59 37 -164 109 -311 44 -89 61 -135 61
-164 0 -56 -35 -113 -85 -137 -39 -19 -62 -20 -488 -20 l-447 0 0 53 0 52 108
51 c59 29 151 81 205 117 80 54 97 61 97 45 0 -24 26 -76 52 -105 l21 -22 33
26 c40 30 41 35 14 71 l-20 27 26 75 c33 92 42 222 24 341 -6 46 -31 172 -55
279 -76 338 -105 464 -110 489 -6 22 -3 21 37 -12 60 -48 121 -77 178 -84 64
-7 143 30 199 94 l41 45 29 -31 c24 -26 85 -61 106 -61 3 0 5 20 5 45 0 37 -6
52 -30 78 -17 17 -41 50 -53 72 -18 31 -29 41 -53 43 -27 3 -34 -4 -78 -68
-52 -76 -105 -120 -145 -120 -72 0 -198 104 -243 200 -14 30 -29 82 -33 116
-14 125 50 451 123 622 16 37 48 96 71 132 61 93 108 198 139 306 l26 94 41
-119 c23 -65 58 -149 79 -187z"/>
<path d="M3375 5107 c-54 -21 -74 -37 -104 -80 -55 -80 -71 -147 -111 -461 -7
-55 -20 -107 -35 -136 -56 -110 -84 -289 -92 -575 l-6 -219 -38 109 c-168 482
-274 904 -300 1193 l-13 132 -49 0 -50 0 7 -92 c30 -392 194 -990 451 -1644
l85 -216 0 -232 0 -231 -29 -70 c-46 -108 -80 -236 -96 -362 -38 -287 -6 -493
164 -1055 93 -306 111 -376 111 -436 0 -51 -31 -133 -108 -287 -64 -128 -75
-191 -48 -273 20 -58 73 -119 131 -147 38 -19 67 -20 541 -23 450 -2 504 -1
518 13 23 23 24 236 1 255 -9 7 -70 39 -136 71 -211 102 -361 215 -402 302
-33 69 -22 154 83 612 97 420 114 522 114 685 0 190 -33 363 -114 592 l-40
113 0 227 0 227 54 218 c154 619 256 1276 256 1646 l0 107 -48 0 -49 0 -6
-177 c-10 -262 -57 -644 -120 -963 l-23 -115 -7 280 c-10 437 -47 652 -144
838 -77 146 -227 221 -348 174z m150 -106 c106 -48 181 -221 220 -505 35 -251
29 -796 -12 -1151 -8 -71 -17 -222 -20 -335 l-5 -204 -19 34 c-52 98 -102 306
-115 478 -5 82 -9 95 -29 108 -18 12 -29 13 -44 5 -21 -12 -26 -24 -37 -86
-39 -232 -153 -553 -219 -615 l-25 -23 0 221 c0 170 -3 230 -15 259 -48 125
-75 334 -75 581 0 286 32 519 86 621 16 32 31 84 39 143 8 51 21 144 30 207
19 134 44 207 83 243 46 43 92 49 157 19z m10 -2036 c34 -114 81 -216 139
-303 25 -37 57 -96 71 -131 43 -104 94 -307 111 -435 18 -142 12 -219 -24
-296 -46 -98 -169 -199 -241 -200 -40 0 -97 47 -148 122 -42 62 -50 69 -77 66
-25 -2 -36 -13 -63 -60 -19 -32 -43 -62 -53 -68 -16 -8 -20 -21 -20 -60 0 -28
2 -50 5 -50 21 0 82 35 106 61 l29 31 41 -45 c56 -64 135 -101 199 -94 57 7
118 36 178 84 40 33 43 34 37 12 -60 -257 -157 -704 -166 -768 -20 -143 -6
-268 46 -402 4 -10 -4 -28 -19 -46 l-25 -30 38 -31 39 -31 20 22 c26 29 52 81
52 105 0 16 17 9 97 -45 54 -36 146 -88 205 -117 l108 -51 0 -53 0 -53 -459 3
c-448 3 -460 4 -488 24 -45 34 -73 82 -73 128 0 30 18 78 70 186 76 156 100
228 100 300 0 60 -35 199 -115 460 -121 395 -175 645 -175 816 0 172 35 366
90 498 26 62 35 74 65 84 79 29 170 174 237 376 18 54 33 94 34 90 1 -5 14
-49 29 -99z"/>
</g>
</svg>
