<svg xmlns="http://www.w3.org/2000/svg" id="deltoid" viewBox="0 0 128 128">
  <path d="M97.148 95.028c.19-1.706.543-3.586 1.056-5.595.137-.535-.187-1.08-.722-1.216-.535-.14-1.08.186-1.216.722-.544 2.132-.92 4.136-1.117 5.957-.445 4.115-4.479 9.391-11.324 11.516-4.312 1.336-8.902.542-12.599-2.181-3.898-2.873-6.226-7.521-6.226-12.436v-12.899c0-2.772 1.683-5.265 4.188-6.205 2.008-.752 4.08-1.362 6.158-1.812.788-.171 1.595-.295 2.397-.369.55-.05.955-.538.904-1.087-.051-.549-.534-.959-1.088-.904-.883.081-1.771.218-2.638.405-2.172.471-4.338 1.108-6.437 1.894-1.968.738-3.535 2.209-4.485 4.039-.95-1.83-2.518-3.301-4.486-4.039-2.096-.785-4.261-1.422-6.436-1.894-.869-.188-1.759-.325-2.646-.406-.547-.052-1.037.354-1.087.904-.051.55.354 1.037.904 1.087.806.074 1.615.199 2.405.37 2.08.451 4.152 1.061 6.157 1.812 2.505.939 4.188 3.433 4.188 6.205v12.899c0 4.915-2.328 9.563-6.226 12.436-3.696 2.724-8.287 3.52-12.598 2.181-6.846-2.125-10.879-7.401-11.325-11.516-.198-1.828-.574-3.833-1.117-5.957-.136-.535-.679-.861-1.216-.721-.535.137-.858.681-.721 1.216.511 2.001.865 3.882 1.056 5.594-.095 1.192-1.357 14.995-9.309 29.491-.266.484-.088 1.092.396 1.358.153.083.317.123.48.123.354 0 .696-.188.878-.519 3.962-7.223 6.298-14.186 7.667-19.626 1.616 4.712 4.586 13.42 6.547 19.454.138.423.529.691.951.691.102 0 .207-.016.309-.049.525-.171.812-.735.642-1.26-2.586-7.953-6.917-20.535-7.608-22.541.194-.959.355-1.839.485-2.628 2.1 3.894 6.249 7.235 11.292 8.799 1.57.487 3.172.727 4.763.727 3.398 0 6.744-1.094 9.614-3.208 2.811-2.071 4.895-4.959 6.04-8.216 1.144 3.258 3.229 6.145 6.039 8.216 2.87 2.115 6.216 3.208 9.614 3.208 1.591 0 3.193-.24 4.763-.727 5.044-1.565 9.193-4.905 11.293-8.8.131.789.291 1.669.485 2.629-.691 2.005-5.022 14.587-7.608 22.541-.171.525.117 1.089.642 1.26.104.033.207.049.31.049.422 0 .813-.269.951-.691 1.961-6.034 4.931-14.742 6.547-19.454 1.37 5.44 3.705 12.403 7.667 19.626.182.332.524.519.878.519.162 0 .327-.04.479-.123.484-.266.662-.874.396-1.358-7.952-14.497-9.214-28.301-9.309-29.491ZM120.855 101.745c-.141-.535-.69-.852-1.223-.711-.533.141-.853.688-.711 1.222 1.803 6.821 3.011 14.497 3.589 22.814.037.527.477.931.997.931.023 0 .047 0 .07-.002.551-.038.967-.516.929-1.067-.588-8.443-1.816-16.244-3.651-23.186ZM119.687 97.699c-.224-.709-.447-1.384-.669-2.026-.181-.522-.753-.798-1.271-.619-.522.181-.8.75-.619 1.272.216.625.434 1.283.651 1.974.135.427.529.7.954.7.1 0 .2-.015.301-.047.526-.166.819-.728.653-1.254Z"></path>
  <path d="M117.473,91.614c-1.272-3.038-2.305-4.804-2.718-5.466.371-3.849-.171-7.819-1.629-11.808-5.484-14.996-21.343-16.06-23.374-16.133l-14.397-6.025c-.269-1.066-.481-2.157-.625-3.276.296-.413.576-.826.837-1.229,2.645-4.085,4.052-7.521,4.188-10.222.422.021.796-.068,1.082-.184,1.891-.774,2.883-3.853,3.382-6.301.144-.709.113-1.446-.089-2.13-.475-1.611-1.811-2.735-3.346-3.004,1.291-3.138,3.382-10.374-1.827-15.742-.539-1.482-3.664-8.989-11.586-8.004-14.29,1.787-21.842,6.963-21.842,14.97,0,1.884.769,6.229,1.655,8.789-1.527.274-2.84,1.394-3.311,2.992-.203.686-.233,1.423-.089,2.131.499,2.447,1.49,5.525,3.381,6.299.286.117.652.206,1.083.185.136,2.701,1.544,6.137,4.189,10.222.261.402.54.814.836,1.227-.144,1.119-.355,2.211-.625,3.277l-14.397,6.025c-2.032.074-17.889,1.137-23.373,16.133-1.459,3.989-2.001,7.958-1.63,11.804-1.266,2.008-8.011,13.768-9.753,38.786-.039.551.377,1.028.928,1.067.023.001.047.002.07.002.521,0,.96-.403.997-.931,1.841-26.437,9.53-37.987,9.607-38.101.027-.04.033-.086.054-.128.032-.065.066-.127.084-.198.017-.067.015-.134.018-.202.002-.05.019-.096.013-.148-.41-3.651.092-7.442,1.49-11.266,5.348-14.624,21.044-14.824,21.71-14.825.132,0,.264-.027.385-.078l13.043-5.459c-.623,1.731-1.417,3.38-2.39,4.931-.293.468-.152,1.085.315,1.379.166.104.349.153.531.153.333,0,.658-.166.848-.468,1.834-2.922,3.087-6.159,3.756-9.64,1.946,2.188,4.341,3.981,6.971,3.981h4.154c2.63,0,5.025-1.794,6.971-3.981.669,3.481,1.923,6.718,3.757,9.641.189.302.515.468.848.468.182,0,.365-.049.53-.153.468-.293.609-.911.315-1.379-.973-1.551-1.767-3.2-2.39-4.931l13.044,5.459c.121.051.253.077.385.078.666.001,16.362.202,21.71,14.825,1.398,3.823,1.899,7.613,1.49,11.266-.006.054.011.103.014.156.003.065.001.128.017.192.018.074.053.138.086.205.02.04.026.085.052.123.012.017,1.194,1.769,2.724,5.418.16.383.531.614.922.614.129,0,.26-.025.387-.078.509-.213.749-.799.535-1.309ZM66.077,53h-4.154c-2.325,0-5.171-2.336-7.81-6.41-2.537-3.919-3.878-7.226-3.878-9.563,0-.265-.004-.554-.009-.841l-.002-.133c-.006-.367-.211-.701-.537-.871-.146-.076-.305-.114-.463-.114-.195,0-.391.057-.559.17-.448.301-.655.217-.745.181-.646-.265-1.571-1.867-2.179-4.848-.08-.39-.063-.792.047-1.166.331-1.125,1.442-1.802,2.552-1.58.386.128.819.01,1.084-.296.228-.263.303-.626.197-.958-.04-.125-.104-.24-.186-.338-.384-.88-1.91-5.799-1.91-9.175,0-8.656,10.925-11.839,20.09-12.985,7.046-.886,9.414,6.539,9.512,6.855.048.157.135.301.251.417,5.968,5.931,1.144,14.695.935,15.065-.199.355-.164.795.089,1.114.254.319.677.454,1.064.337,1.162-.343,2.391.351,2.742,1.544h0c.109.372.126.775.047,1.166-.608,2.981-1.533,4.583-2.18,4.848-.089.035-.298.119-.744-.181-.304-.205-.696-.227-1.021-.057-.325.17-.531.504-.537.871l-.002.133c-.004.287-.009.576-.009.841,0,2.337-1.341,5.644-3.878,9.563-2.639,4.074-5.485,6.41-7.81,6.41Z"></path>
  <path d="M82.104 112.955c-.307.364-7.507 8.699-17.104 3.13v-6.567c0-.552-.448-1-1-1s-1 .448-1 1v6.567c-9.599 5.569-16.796-2.766-17.103-3.13-.355-.422-.987-.478-1.408-.122-.422.354-.479.984-.124 1.407.064.078 4.923 5.751 12.067 5.751 2.024 0 4.234-.468 6.568-1.635v6.644c0 .552.448 1 1 1s1-.448 1-1v-6.644c2.334 1.168 4.543 1.635 6.568 1.635 7.143 0 12.003-5.674 12.067-5.751.354-.423.299-1.052-.124-1.407-.422-.354-1.054-.301-1.408.122ZM68.801 66.007c.367 0 .72-.202.896-.553l2.903-5.806c.247-.494.047-1.095-.447-1.342-.494-.248-1.094-.047-1.342.447l-2.903 5.806c-.247.494-.047 1.095.447 1.342.144.072.296.105.446.105ZM59.159 66.007c.15 0 .303-.034.446-.105.494-.247.694-.848.447-1.342l-2.903-5.806c-.247-.494-.846-.694-1.342-.447-.494.247-.694.848-.447 1.342l2.903 5.806c.175.351.528.553.896.553ZM111.184 89.395c-.826-1.926-1.581-3.818-1.75-5.789-1.671-19.48-17.865-19.632-18.98-19.599-.325-.016-1.454.004-2.364.951-.477.497-.795 1.15-.955 1.951-.898-.726-1.951-1.272-3.116-1.564-.538-.138-1.079.192-1.212.728-.135.536.191 1.079.728 1.213 1.968.492 3.54 1.905 4.207 3.781 1.352 3.801 4.97 11.079 14.021 17.126 1.98 1.322 3.496 3.271 4.267 5.489l.574 1.651c.144.413.53.672.944.672.109 0 .22-.018.328-.056.521-.181.798-.751.616-1.273l-.574-1.651c-.493-1.416-1.248-2.734-2.2-3.898.666-.062 1.264-.262 1.784-.616.342-.233.618-.517.851-.825.302.855.646 1.689.994 2.499l1.511 3.526c.162.379.531.606.919.606.132 0 .266-.026.394-.082.508-.217.743-.805.525-1.313l-1.511-3.526ZM107.44 83.76c.022.409-.022 1.274-.305 2.025-4.089-10.997-11.888-17.249-15.675-19.758 3.443.203 14.628 2.069 15.979 17.733ZM89.625 70.396c-.145-.408-.333-.793-.539-1.165-.116-.941-.077-1.711.107-2.261 2.769 1.682 12.036 8.055 16.301 20.169-.846.068-1.862-.277-2.684-.654-8.525-5.718-11.92-12.531-13.186-16.089ZM26.238 88.192c9.052-6.047 12.67-13.326 14.022-17.126.667-1.875 2.24-3.289 4.208-3.781.536-.134.861-.677.728-1.213-.134-.536-.677-.862-1.213-.728-1.165.291-2.218.838-3.116 1.564-.16-.8-.478-1.453-.956-1.95-.911-.949-2.047-.968-2.363-.951-1.155-.02-17.311.126-18.981 19.599-.169 1.972-.924 3.864-1.75 5.789l-1.511 3.526c-.218.508.018 1.096.525 1.313.128.055.262.082.394.082.388 0 .757-.228.919-.606l1.511-3.526c.347-.81.691-1.644.994-2.499.233.308.51.592.852.825.519.354 1.117.554 1.783.616-.952 1.164-1.707 2.482-2.2 3.898l-.574 1.651c-.182.522.094 1.092.616 1.273.109.038.22.056.329.056.414 0 .801-.259.944-.672l.574-1.651c.771-2.217 2.286-4.166 4.266-5.489ZM25.19 86.484c-.822.377-1.839.724-2.685.655 4.264-12.112 13.529-18.485 16.301-20.169.184.55.225 1.318.108 2.261-.206.372-.393.756-.538 1.164-1.265 3.558-4.661 10.371-13.185 16.089ZM36.541 66.026c-3.786 2.509-11.587 8.761-15.676 19.759-.282-.748-.326-1.61-.305-2.02 1.349-15.667 12.541-17.537 15.981-17.739Z"></path>
</svg>
